<svg width="430" height="430" viewBox="0 0 430 430" fill="none" xmlns="http://www.w3.org/2000/svg">
<path d="M215.46 159.201V134.091" stroke="#08A88A" stroke-width="7" stroke-linecap="round" stroke-linejoin="round"/>
<g style="mix-blend-mode:multiply" opacity="0.5">
<path d="M215.46 159.201V134.091" stroke="#08A88A" stroke-width="7" stroke-linecap="round" stroke-linejoin="round"/>
</g>
<path d="M284.44 268.33V294.3H319.8V101.49H353.57V294.3H385.93C387.59 294.3 388.93 295.64 388.93 297.3V371.36C388.93 373.02 387.59 374.36 385.93 374.36H45C43.34 374.36 42 373.02 42 371.36V297.3C42 295.64 43.34 294.3 45 294.3H77.36V101.49H111.13V294.3H146.49V268.33H284.44Z" fill="#FFC738"/>
<g style="mix-blend-mode:multiply" opacity="0.5">
<path d="M45 294.301H146.49V374.361H45C43.34 374.361 42 373.021 42 371.361V297.301C42 295.641 43.34 294.301 45 294.301Z" fill="#FFC738"/>
</g>
<g style="mix-blend-mode:multiply" opacity="0.5">
<path d="M388.93 297.301V371.361C388.93 373.021 387.59 374.361 385.93 374.361H284.44V294.301H385.93C387.59 294.301 388.93 295.641 388.93 297.301Z" fill="#FFC738"/>
</g>
<path d="M286 249.42C286 255.91 285.47 262.24 284.44 268.34H146.49C145.47 262.24 144.93 255.91 144.93 249.42C144.93 199.59 176.51 159.2 215.47 159.2C254.43 159.2 286 199.59 286 249.42Z" fill="#08A88A"/>
<g style="mix-blend-mode:multiply" opacity="0.5">
<path d="M171.53 249.42C171.53 255.91 172.07 262.24 173.09 268.34H146.49C145.47 262.24 144.93 255.91 144.93 249.42C144.93 199.59 176.51 159.2 215.47 159.2C220.02 159.2 224.46 159.75 228.77 160.81C196.17 168.75 171.53 205.4 171.53 249.42Z" fill="#08A88A"/>
</g>
<path d="M116.01 101.5H72.48C65.92 92.7304 84.98 66.2104 91.87 57.1804C93.07 55.6104 95.43 55.6104 96.63 57.1804C103.52 66.2104 122.57 92.7204 116.01 101.5Z" fill="#08A88A"/>
<path d="M358.45 101.5H314.92C308.36 92.7304 327.42 66.2204 334.31 57.1804C335.51 55.6104 337.87 55.6104 339.07 57.1804C345.96 66.2204 365.01 92.7304 358.45 101.5Z" fill="#08A88A"/>
<g style="mix-blend-mode:multiply" opacity="0.5">
<path d="M88.63 101.5H72.43C65.87 92.7304 84.93 66.2204 91.82 57.1804C93.02 55.6104 95.39 55.6104 96.58 57.1804C98.05 59.1104 100.08 61.8504 102.3 65.0304C94.14 76.7404 83.47 94.5904 88.63 101.49V101.5Z" fill="#08A88A"/>
</g>
<g style="mix-blend-mode:multiply" opacity="0.5">
<path d="M331.07 101.5H314.87C308.31 92.7404 327.37 66.2204 334.26 57.1804C335.46 55.6104 337.83 55.6104 339.02 57.1804C340.49 59.1104 342.52 61.8504 344.74 65.0304C336.58 76.7404 325.91 94.6004 331.07 101.49V101.5Z" fill="#08A88A"/>
</g>
<path d="M190.02 374.361V349.071C190.02 332.971 195.76 317.401 206.21 305.151L213.18 296.981C214.38 295.581 216.55 295.581 217.74 296.981L224.71 305.151C235.16 317.401 240.9 332.971 240.9 349.071V374.361H190.01H190.02Z" fill="#3A3347"/>
<g style="mix-blend-mode:multiply" opacity="0.5">
<path d="M223.14 303.32L221.57 305.16C211.12 317.41 205.38 332.98 205.38 349.08V374.37H190.01V349.08C190.01 332.98 195.76 317.41 206.21 305.16L213.18 296.99C214.38 295.58 216.55 295.59 217.75 296.99L223.15 303.32H223.14Z" fill="#3A3347"/>
</g>
<path d="M71.29 334.33V374.36H64.29V334.33C64.29 332.4 65.86 330.83 67.79 330.83C69.72 330.83 71.29 332.4 71.29 334.33Z" fill="#3A3347"/>
<path d="M97.74 334.33V374.36H90.74V334.33C90.74 332.4 92.31 330.83 94.24 330.83C96.17 330.83 97.74 332.4 97.74 334.33Z" fill="#3A3347"/>
<path d="M124.19 334.33V374.36H117.19V334.33C117.19 332.4 118.76 330.83 120.69 330.83C122.62 330.83 124.19 332.4 124.19 334.33Z" fill="#3A3347"/>
<path d="M313.73 334.12V374.15C313.73 374.22 313.73 374.29 313.72 374.36H306.74C306.74 374.29 306.74 374.22 306.74 374.15V334.12C306.74 332.19 308.31 330.62 310.24 330.62C312.17 330.62 313.74 332.19 313.74 334.12H313.73Z" fill="#3A3347"/>
<path d="M340.18 334.12V374.15C340.18 374.22 340.18 374.29 340.18 374.36H333.2C333.19 374.29 333.19 374.22 333.19 374.15V334.12C333.19 332.19 334.76 330.62 336.69 330.62C338.62 330.62 340.19 332.19 340.19 334.12H340.18Z" fill="#3A3347"/>
<path d="M366.63 334.12V374.15C366.63 374.22 366.63 374.29 366.62 374.36H359.64C359.64 374.29 359.64 374.22 359.64 374.15V334.12C359.64 332.19 361.21 330.62 363.14 330.62C365.07 330.62 366.64 332.19 366.64 334.12H366.63Z" fill="#3A3347"/>
<path d="M118.49 169.271H69.99C68.06 169.271 66.49 167.701 66.49 165.771C66.49 163.841 68.06 162.271 69.99 162.271H118.49C120.42 162.271 121.99 163.841 121.99 165.771C121.99 167.701 120.42 169.271 118.49 169.271Z" fill="#FFC738"/>
<path d="M118.49 233.54H69.99C68.06 233.54 66.49 231.97 66.49 230.04C66.49 228.11 68.06 226.54 69.99 226.54H118.49C120.42 226.54 121.99 228.11 121.99 230.04C121.99 231.97 120.42 233.54 118.49 233.54Z" fill="#FFC738"/>
<path d="M360.93 169.271H312.43C310.5 169.271 308.93 167.701 308.93 165.771C308.93 163.841 310.5 162.271 312.43 162.271H360.93C362.86 162.271 364.43 163.841 364.43 165.771C364.43 167.701 362.86 169.271 360.93 169.271Z" fill="#FFC738"/>
<path d="M360.93 233.54H312.43C310.5 233.54 308.93 231.97 308.93 230.04C308.93 228.11 310.5 226.54 312.43 226.54H360.93C362.86 226.54 364.43 228.11 364.43 230.04C364.43 231.97 362.86 233.54 360.93 233.54Z" fill="#FFC738"/>
<g style="mix-blend-mode:multiply" opacity="0.5">
<path d="M118.49 169.261H69.99C68.06 169.261 66.49 167.691 66.49 165.761C66.49 163.831 68.06 162.261 69.99 162.261H118.49C120.42 162.261 121.99 163.831 121.99 165.761C121.99 167.691 120.42 169.261 118.49 169.261Z" fill="#FFC738"/>
</g>
<g style="mix-blend-mode:multiply" opacity="0.5">
<path d="M118.49 233.53H69.99C68.06 233.53 66.49 231.96 66.49 230.03C66.49 228.1 68.06 226.53 69.99 226.53H118.49C120.42 226.53 121.99 228.1 121.99 230.03C121.99 231.96 120.42 233.53 118.49 233.53Z" fill="#FFC738"/>
</g>
<g style="mix-blend-mode:multiply" opacity="0.5">
<path d="M360.93 169.271H312.43C310.5 169.271 308.93 167.701 308.93 165.771C308.93 163.841 310.5 162.271 312.43 162.271H360.93C362.86 162.271 364.43 163.841 364.43 165.771C364.43 167.701 362.86 169.271 360.93 169.271Z" fill="#FFC738"/>
</g>
<g style="mix-blend-mode:multiply" opacity="0.5">
<path d="M360.93 233.54H312.43C310.5 233.54 308.93 231.97 308.93 230.04C308.93 228.11 310.5 226.54 312.43 226.54H360.93C362.86 226.54 364.43 228.11 364.43 230.04C364.43 231.97 362.86 233.54 360.93 233.54Z" fill="#FFC738"/>
</g>
</svg>
