<svg width="430" height="932" viewBox="0 0 430 932" fill="none" xmlns="http://www.w3.org/2000/svg">
<g clip-path="url(#clip0_15_78)">
<rect width="430" height="932" fill="#101017"/>
<path d="M-4 49C-4 28.0132 13.0132 11 34 11H397C417.987 11 435 28.0132 435 49V49C435 69.9868 417.987 87 397 87H34C13.0132 87 -4 69.9868 -4 49V49V49Z" fill="#101017"/>
<path d="M409.081 34.5954H395.376C394.44 34.5954 393.663 33.8893 393.663 33.0378C393.663 32.1864 394.44 31.4803 395.376 31.4803H409.081C410.018 31.4803 410.794 32.1864 410.794 33.0378C410.794 33.8893 410.018 34.5954 409.081 34.5954Z" fill="white"/>
<path d="M402.229 40.8256H395.376C394.44 40.8256 393.663 40.1195 393.663 39.2681C393.663 38.4166 394.44 37.7105 395.376 37.7105H402.229C403.165 37.7105 403.942 38.4166 403.942 39.2681C403.942 40.1195 403.165 40.8256 402.229 40.8256Z" fill="white"/>
<path d="M387.701 69.7234C374.796 69.7234 364.289 60.1704 364.289 48.4367C364.289 36.7031 374.796 27.15 387.701 27.15C388.638 27.15 389.415 27.8561 389.415 28.7076C389.415 29.559 388.638 30.2651 387.701 30.2651C376.669 30.2651 367.715 38.4268 367.715 48.4367C367.715 58.4467 376.669 66.6083 387.701 66.6083C398.734 66.6083 407.688 58.4467 407.688 48.4367C407.688 47.5853 408.465 46.8792 409.401 46.8792C410.338 46.8792 411.114 47.5853 411.114 48.4367C411.114 60.1704 400.607 69.7234 387.701 69.7234Z" fill="white"/>
<path d="M413.651 69.9C413.217 69.9 412.783 69.7546 412.44 69.4431L407.872 65.2896C407.209 64.6874 407.209 63.6905 407.872 63.0883C408.534 62.486 409.63 62.486 410.293 63.0883L414.861 67.2418C415.524 67.844 415.524 68.8409 414.861 69.4431C414.519 69.7546 414.085 69.9 413.651 69.9Z" fill="#E3F0FF"/>
<path d="M10 33H51" stroke="#E4C2C2" stroke-width="6.15177" stroke-linecap="round" stroke-linejoin="round"/>
<path d="M10 49H51" stroke="#E4C2C2" stroke-width="6.15177" stroke-linecap="round" stroke-linejoin="round"/>
<path d="M10 65H51" stroke="#E4C2C2" stroke-width="6.15177" stroke-linecap="round" stroke-linejoin="round"/>
<path d="M8 260C8 237.909 25.9086 220 48 220H383C405.091 220 423 237.909 423 260V330C423 352.091 405.091 370 383 370H48C25.9086 370 8 352.091 8 330V260Z" fill="#EF8AFF"/>
<path d="M50.021 246.061C53.8765 241.642 57.3855 238.134 55.7392 236.357C54.0929 234.581 27.445 244.474 28.949 247.057C29.8453 248.597 53.6529 265.874 56.001 267.264C58.7599 268.896 63.1901 266.985 62.8003 263.952C62.4105 260.92 59.2047 236.123 59.2047 236.123C59.2047 236.123 61.0242 238.567 61.5874 240.256" stroke="black" stroke-width="1.54509" stroke-linecap="round" stroke-linejoin="round"/>
<path d="M68.3455 266.093C67.9557 263.061 64.7499 238.263 64.7499 238.263C64.7499 238.263 66.5694 240.707 67.1326 242.397" stroke="black" stroke-width="1.54509" stroke-linecap="round" stroke-linejoin="round"/>
<path d="M57.992 277.468C57.992 267.862 54.7638 246.55 54.7638 246.55C54.7638 246.55 56.5833 248.994 57.1465 250.684" stroke="black" stroke-width="1.54509" stroke-linecap="round" stroke-linejoin="round"/>
<path d="M48.2389 247.613C47.6757 245.924 45.8562 243.48 45.8562 243.48C45.8562 243.48 46.772 254.617 52.1004 256.826C37.8138 249.906 31.0142 272.552 24.841 265.924C20.4364 261.194 28.35 254.552 28.35 254.552" stroke="black" stroke-width="1.54509" stroke-linecap="round" stroke-linejoin="round"/>
<path d="M72.7209 246.816C72.1577 245.126 70.3382 242.682 70.3382 242.682C70.3382 242.682 73.4689 270.332 74.1359 277.468C74.4537 280.869 68.1505 282.429 65.8112 276.71C63.4719 270.992 65.6162 269.367 67.0459 269.367C68.4756 269.367 70.8149 274.133 67.0459 276.342C63.277 278.551 56.9955 280.154 55.0895 282.363C53.1835 284.573 49.8478 289.641 47.6384 289.641C45.4291 289.641 41.0971 287.259 46.0356 277.468" stroke="black" stroke-width="1.54509" stroke-linecap="round" stroke-linejoin="round"/>
<path d="M78.1792 273.266C77.7894 268.198 75.1468 247.664 75.1468 247.664C75.1468 247.664 76.9663 250.108 77.5295 251.797" stroke="black" stroke-width="1.54509" stroke-linecap="round" stroke-linejoin="round"/>
<path d="M35.7578 238.956C38.422 237.299 43.9128 236.26 46.772 234.018" stroke="black" stroke-width="1.54509" stroke-linecap="round" stroke-linejoin="round"/>
<path d="M28.0142 267.153C24.4619 271.057 25.4583 278.985 29.6171 277.685C31.1701 277.2 33.0399 273.969 36.1584 272.573C41.391 270.231 48.0842 269.036 47.6815 265.295C47.1618 260.465 42.5263 257.655 42.5263 257.655" stroke="black" stroke-width="1.54509" stroke-linecap="round" stroke-linejoin="round"/>
<path d="M54.0282 269.974C51.808 268.994 51.0825 267.861 51.0825 267.861C52.8803 271.88 54.2664 274.327 54.3098 276.255C54.3533 278.183 44.4112 284.345 40.1441 284.345C35.1731 284.345 31.5369 280.774 32.9488 274.843" stroke="black" stroke-width="1.54509" stroke-linecap="round" stroke-linejoin="round"/>
<path d="M29.797 247.904C26.5305 249.418 24.5049 256.582 26.996 255.859" stroke="black" stroke-width="1.54509" stroke-linecap="round" stroke-linejoin="round"/>
<path d="M51.2195 295.439C69.5661 295.439 84.439 280.566 84.439 262.22C84.439 243.873 69.5661 229 51.2195 229C32.8729 229 18 243.873 18 262.22C18 280.566 32.8729 295.439 51.2195 295.439Z" stroke="black" stroke-width="1.54509" stroke-linecap="round" stroke-linejoin="round"/>
<path d="M387.297 255.62L383.184 249.365C380.907 245.902 379.769 244.171 378.277 244.011C376.786 243.851 375.121 245.494 371.79 248.78C361.027 259.401 350.263 257.832 339.5 276.93C328.737 257.832 317.973 259.401 307.21 248.78C303.879 245.494 302.214 243.851 300.723 244.011C299.231 244.171 298.093 245.902 295.816 249.365L291.703 255.62C290.114 258.037 289.32 259.245 289.535 260.517C289.749 261.789 290.895 262.66 293.187 264.403L331.827 293.786C335.521 296.595 337.369 298 339.5 298C341.631 298 343.479 296.595 347.172 293.786L385.813 264.403C388.105 262.66 389.251 261.789 389.466 260.517C389.68 259.245 388.886 258.037 387.297 255.62Z" stroke="#141B34" stroke-width="4.98293" stroke-linecap="round" stroke-linejoin="round"/>
<path d="M402 274L302 346V317.826M277 274L377 346V317.826" stroke="#141B34" stroke-width="4.98293" stroke-linecap="round" stroke-linejoin="round"/>
<path d="M422.778 457.5L18 457.5" stroke="white"/>
<path d="M422.778 527.53L18 527.53" stroke="white"/>
<path d="M-4 896C-4 881.858 -4 874.787 0.393398 870.393C4.7868 866 11.8579 866 26 866H405C419.142 866 426.213 866 430.607 870.393C435 874.787 435 881.858 435 896V913C435 927.142 435 934.213 430.607 938.607C426.213 943 419.142 943 405 943H26C11.8579 943 4.7868 943 0.393398 938.607C-4 934.213 -4 927.142 -4 913V896Z" fill="#37253D"/>
<path d="M65 877L47 891.143H51.5V910H60.5V900.571H69.5V910H78.5V891.001L83 891.143L65 877Z" fill="#FDEFEF"/>
<path d="M126.977 885.156C123.074 885.156 119.899 887.932 119.899 891.344C119.899 891.914 120.427 892.375 121.078 892.375C121.73 892.375 122.258 891.914 122.258 891.344C122.258 889.069 124.376 887.219 126.977 887.219C127.629 887.219 128.157 886.757 128.157 886.188C128.157 885.618 127.629 885.156 126.977 885.156ZM121.083 909.596C121.083 909.799 121.151 909.996 121.28 910.165L123.088 912.54C123.307 912.827 123.675 913 124.07 913H129.884C130.279 913 130.648 912.827 130.866 912.54L132.673 910.165C132.801 909.996 132.87 909.798 132.871 909.596L132.874 906.812H121.08L121.083 909.596ZM126.977 880C119.436 880 114 885.348 114 891.344C114 894.204 115.213 896.813 117.212 898.807C118.439 900.03 120.363 902.596 121.077 904.747V904.75H124.616V904.743C124.615 904.435 124.563 904.13 124.458 903.836C124.046 902.688 122.775 899.661 119.874 896.767C118.359 895.257 117.55 893.341 117.543 891.344C117.528 886.598 121.943 883.094 126.977 883.094C132.181 883.094 136.415 886.795 136.415 891.344C136.415 893.34 135.586 895.266 134.081 896.767C131.198 899.642 129.921 902.663 129.503 903.822C129.394 904.12 129.339 904.431 129.339 904.744V904.75H132.878V904.747C133.592 902.596 135.516 900.03 136.743 898.807C138.741 896.813 139.954 894.204 139.954 891.344C139.954 885.079 134.144 880 126.977 880Z" fill="#E3D2D2"/>
<path d="M352.27 880L343 889L367.721 913L392.441 889L383.171 880L367.721 895L352.27 880Z" fill="#D6D6D6"/>
<path d="M219.673 880L201.461 884.29C201.19 884.356 201 884.573 201 884.824V908.179C201 908.43 201.19 908.647 201.461 908.71L219.673 913V880Z" fill="url(#paint0_radial_15_78)"/>
<path d="M219.673 880L237.886 884.29C238.16 884.353 238.346 884.573 238.346 884.821V908.177C238.346 908.427 238.157 908.644 237.886 908.707L219.673 913V880Z" fill="#F8E3E3"/>
<path d="M205.98 896.827C205.98 896.354 205.637 895.953 205.164 895.799C205.282 895.697 205.357 895.557 205.357 895.4C205.357 895.098 205.077 894.85 204.735 894.85C204.392 894.85 204.112 895.098 204.112 895.4C204.112 895.557 204.187 895.697 204.305 895.799C203.832 895.953 203.49 896.352 203.49 896.827C203.49 897.248 203.761 897.611 204.153 897.795C204.243 898.002 204.467 898.15 204.735 898.15C205.002 898.15 205.226 898.002 205.317 897.795C205.709 897.608 205.98 897.248 205.98 896.827Z" fill="url(#paint1_radial_15_78)"/>
<path d="M215.939 896.827C215.939 896.354 215.596 895.953 215.123 895.799C215.241 895.697 215.316 895.557 215.316 895.4C215.316 895.098 215.036 894.85 214.694 894.85C214.351 894.85 214.071 895.098 214.071 895.4C214.071 895.557 214.146 895.697 214.264 895.799C213.791 895.953 213.449 896.352 213.449 896.827C213.449 897.248 213.72 897.611 214.112 897.795C214.202 898.002 214.426 898.15 214.694 898.15C214.961 898.15 215.185 898.002 215.276 897.795C215.668 897.608 215.939 897.248 215.939 896.827Z" fill="url(#paint2_radial_15_78)"/>
<path d="M225.898 896.827C225.898 896.354 225.555 895.953 225.082 895.799C225.2 895.697 225.275 895.557 225.275 895.4C225.275 895.098 224.995 894.85 224.653 894.85C224.31 894.85 224.03 895.098 224.03 895.4C224.03 895.557 224.105 895.697 224.223 895.799C223.75 895.953 223.408 896.352 223.408 896.827C223.408 897.248 223.679 897.611 224.071 897.795C224.161 898.002 224.385 898.15 224.653 898.15C224.92 898.15 225.144 898.002 225.235 897.795C225.627 897.608 225.898 897.248 225.898 896.827Z" fill="url(#paint3_radial_15_78)"/>
<path d="M235.857 896.827C235.857 896.354 235.514 895.953 235.041 895.799C235.16 895.7 235.234 895.557 235.234 895.4C235.234 895.098 234.954 894.85 234.612 894.85C234.269 894.85 233.989 895.098 233.989 895.4C233.989 895.557 234.064 895.697 234.182 895.799C233.706 895.953 233.367 896.354 233.367 896.827C233.367 897.248 233.638 897.611 234.03 897.795C234.12 898.004 234.344 898.15 234.612 898.15C234.879 898.15 235.104 898.002 235.194 897.795C235.586 897.608 235.857 897.248 235.857 896.827Z" fill="url(#paint4_radial_15_78)"/>
<path d="M201 889.9L219.673 887.7V891L201 892.1V889.9Z" fill="url(#paint5_radial_15_78)"/>
<path d="M238.346 889.9L219.673 887.7V891L238.346 892.1V889.9Z" fill="url(#paint6_radial_15_78)"/>
<path d="M207.847 895.4H211.582C211.924 895.4 212.204 895.647 212.204 895.95V897.05C212.204 897.352 211.924 897.6 211.582 897.6H207.847C207.505 897.6 207.224 897.352 207.224 897.05V895.95C207.224 895.647 207.505 895.4 207.847 895.4Z" fill="url(#paint7_radial_15_78)"/>
<path d="M217.806 895.4H219.673V897.6H217.806C217.464 897.6 217.183 897.352 217.183 897.05V895.95C217.183 895.647 217.464 895.4 217.806 895.4Z" fill="url(#paint8_radial_15_78)"/>
<path d="M219.673 895.4H221.541C221.883 895.4 222.163 895.647 222.163 895.95V897.05C222.163 897.352 221.883 897.6 221.541 897.6H219.673V895.4Z" fill="url(#paint9_radial_15_78)"/>
<path d="M227.765 895.4H231.5C231.842 895.4 232.122 895.647 232.122 895.95V897.05C232.122 897.352 231.842 897.6 231.5 897.6H227.765C227.423 897.6 227.143 897.352 227.143 897.05V895.95C227.143 895.647 227.423 895.4 227.765 895.4Z" fill="url(#paint10_radial_15_78)"/>
<path d="M301.861 910.636C303.363 910.636 304.828 910.453 306.206 910.103C303.069 912.118 299.199 913.3 295.016 913.3C284.51 913.3 276 905.849 276 896.65C276 887.451 284.51 880 295.016 880C299.199 880 303.069 881.182 306.206 883.197C304.828 882.847 303.363 882.664 301.861 882.664C293.038 882.664 285.888 888.924 285.888 896.65C285.888 904.376 293.038 910.636 301.861 910.636Z" fill="#FCF9FF"/>
<path d="M306.16 891.253L307.965 894.454L312 894.968L309.08 897.46L309.769 900.979L306.16 899.317L302.551 900.979L303.24 897.46L300.32 894.968L304.355 894.454L306.16 891.253Z" fill="#CAB8D9"/>
<path d="M301.861 910.636C303.363 910.636 304.828 910.453 306.206 910.103C303.069 912.118 299.199 913.3 295.016 913.3C284.51 913.3 276 905.849 276 896.65C276 887.451 284.51 880 295.016 880C299.199 880 303.069 881.182 306.206 883.197C304.828 882.847 303.363 882.664 301.861 882.664C293.038 882.664 285.888 888.924 285.888 896.65C285.888 904.376 293.038 910.636 301.861 910.636Z" fill="#CAB8D9"/>
<path d="M306.16 891.253L307.965 894.454L312 894.968L309.08 897.46L309.769 900.979L306.16 899.317L302.551 900.979L303.24 897.46L300.32 894.968L304.355 894.454L306.16 891.253Z" fill="#CAB8D9"/>
</g>
<defs>
<radialGradient id="paint0_radial_15_78" cx="0" cy="0" r="1" gradientUnits="userSpaceOnUse" gradientTransform="translate(202.116 884.006) rotate(90) scale(32.0705 32.411)">
<stop stop-color="white"/>
<stop offset="0.5227" stop-color="#FFEFEF"/>
<stop offset="1" stop-color="white"/>
</radialGradient>
<radialGradient id="paint1_radial_15_78" cx="0" cy="0" r="1" gradientUnits="userSpaceOnUse" gradientTransform="translate(201.311 889.419) scale(19.5365 17.2628)">
<stop stop-color="#FFCA28"/>
<stop offset="0.3261" stop-color="#FFC51F"/>
<stop offset="0.8468" stop-color="#FFB808"/>
<stop offset="1" stop-color="#FFB300"/>
</radialGradient>
<radialGradient id="paint2_radial_15_78" cx="0" cy="0" r="1" gradientUnits="userSpaceOnUse" gradientTransform="translate(201.311 889.419) scale(19.5365 17.2628)">
<stop stop-color="#FFCA28"/>
<stop offset="0.3261" stop-color="#FFC51F"/>
<stop offset="0.8468" stop-color="#FFB808"/>
<stop offset="1" stop-color="#FFB300"/>
</radialGradient>
<radialGradient id="paint3_radial_15_78" cx="0" cy="0" r="1" gradientUnits="userSpaceOnUse" gradientTransform="translate(219.907 886.806) scale(20.8801 18.45)">
<stop stop-color="#FFB300"/>
<stop offset="0.352" stop-color="#FFAA00"/>
<stop offset="0.9142" stop-color="#FF9300"/>
<stop offset="1" stop-color="#FF8F00"/>
</radialGradient>
<radialGradient id="paint4_radial_15_78" cx="0" cy="0" r="1" gradientUnits="userSpaceOnUse" gradientTransform="translate(219.907 886.806) scale(20.8801 18.45)">
<stop stop-color="#FFB300"/>
<stop offset="0.352" stop-color="#FFAA00"/>
<stop offset="0.9142" stop-color="#FF9300"/>
<stop offset="1" stop-color="#FF8F00"/>
</radialGradient>
<radialGradient id="paint5_radial_15_78" cx="0" cy="0" r="1" gradientUnits="userSpaceOnUse" gradientTransform="translate(201.311 889.419) scale(19.5365 17.2628)">
<stop stop-color="#FFCA28"/>
<stop offset="0.3261" stop-color="#FFC51F"/>
<stop offset="0.8468" stop-color="#FFB808"/>
<stop offset="1" stop-color="#FFB300"/>
</radialGradient>
<radialGradient id="paint6_radial_15_78" cx="0" cy="0" r="1" gradientUnits="userSpaceOnUse" gradientTransform="translate(219.907 886.806) scale(20.8801 18.45)">
<stop stop-color="#FFB300"/>
<stop offset="0.352" stop-color="#FFAA00"/>
<stop offset="0.9142" stop-color="#FF9300"/>
<stop offset="1" stop-color="#FF8F00"/>
</radialGradient>
<radialGradient id="paint7_radial_15_78" cx="0" cy="0" r="1" gradientUnits="userSpaceOnUse" gradientTransform="translate(201.311 889.419) scale(19.5365 17.2628)">
<stop stop-color="#FFCA28"/>
<stop offset="0.3261" stop-color="#FFC51F"/>
<stop offset="0.8468" stop-color="#FFB808"/>
<stop offset="1" stop-color="#FFB300"/>
</radialGradient>
<radialGradient id="paint8_radial_15_78" cx="0" cy="0" r="1" gradientUnits="userSpaceOnUse" gradientTransform="translate(201.311 889.419) scale(19.5365 17.2628)">
<stop stop-color="#FFCA28"/>
<stop offset="0.3261" stop-color="#FFC51F"/>
<stop offset="0.8468" stop-color="#FFB808"/>
<stop offset="1" stop-color="#FFB300"/>
</radialGradient>
<radialGradient id="paint9_radial_15_78" cx="0" cy="0" r="1" gradientUnits="userSpaceOnUse" gradientTransform="translate(219.907 886.806) scale(20.8801 18.45)">
<stop stop-color="#FFB300"/>
<stop offset="0.352" stop-color="#FFAA00"/>
<stop offset="0.9142" stop-color="#FF9300"/>
<stop offset="1" stop-color="#FF8F00"/>
</radialGradient>
<radialGradient id="paint10_radial_15_78" cx="0" cy="0" r="1" gradientUnits="userSpaceOnUse" gradientTransform="translate(219.907 886.806) scale(20.8801 18.45)">
<stop stop-color="#FFB300"/>
<stop offset="0.352" stop-color="#FFAA00"/>
<stop offset="0.9142" stop-color="#FF9300"/>
<stop offset="1" stop-color="#FF8F00"/>
</radialGradient>
<clipPath id="clip0_15_78">
<rect width="430" height="932" fill="white"/>
</clipPath>
</defs>
</svg>
