<svg width="189" height="127" viewBox="0 0 189 127" fill="none" xmlns="http://www.w3.org/2000/svg">
<path d="M1.99437 80.0567L66.1547 99.3261L32.4288 109.454V94.261H25.943V124.647C25.943 125.032 26.0748 125.411 26.3268 125.75C26.5788 126.089 26.9432 126.379 27.3875 126.592C27.8319 126.806 28.3425 126.937 28.8741 126.974C29.4056 127.011 29.9416 126.952 30.4344 126.804L93.8749 107.75L93.8035 107.628L157.656 126.804C158.148 126.952 158.684 127.01 159.215 126.972C159.746 126.935 160.256 126.804 160.7 126.591C161.144 126.377 161.508 126.088 161.76 125.749C162.012 125.41 162.144 125.031 162.144 124.647V94.261H155.658V109.454L121.932 99.3261L186.093 80.0567C186.683 79.8791 187.188 79.5795 187.543 79.1956C187.898 78.8117 188.087 78.3607 188.087 77.8993V19.4649C188.087 19.08 187.955 18.7011 187.703 18.3617C187.451 18.0224 187.087 17.7331 186.642 17.5197C186.198 17.3062 185.687 17.1752 185.156 17.1382C184.624 17.1012 184.088 17.1593 183.596 17.3075L165.387 22.777V3.10327C165.386 2.71406 165.251 2.33113 164.993 1.98918C164.735 1.64722 164.363 1.35704 163.91 1.14491C163.457 0.932776 162.938 0.805401 162.4 0.774319C161.862 0.743237 161.321 0.80943 160.827 0.966903C152.413 3.56872 143.638 5.51739 134.651 6.77996C126.025 7.84814 118.294 5.33546 110.096 7.53493C103.546 9.19047 97.9154 12.3283 94.0435 16.4801C90.1725 12.3277 84.5412 9.18972 77.9912 7.53493C69.7965 5.33546 62.0492 7.84814 53.4362 6.77996C44.4491 5.51747 35.6741 3.5688 27.2596 0.966903C26.7658 0.80943 26.2253 0.743237 25.687 0.774319C25.1488 0.805401 24.6298 0.932776 24.177 1.14491C23.7243 1.35704 23.3521 1.64722 23.0943 1.98918C22.8364 2.33113 22.7009 2.71406 22.7002 3.10327V22.7606L4.48814 17.3075C3.99546 17.1598 3.45983 17.102 2.92874 17.1393C2.39766 17.1766 1.88753 17.3077 1.4436 17.5211C0.999676 17.7345 0.635662 18.0235 0.383842 18.3626C0.132022 18.7017 0.000177735 19.0803 1.12902e-08 19.4649V77.8993C-5.33847e-05 78.3607 0.189293 78.8117 0.54419 79.1956C0.899088 79.5795 1.40367 79.8791 1.99437 80.0567ZM32.4288 121.141V114.517L74.5862 101.857L85.612 105.17L32.4288 121.141ZM155.658 121.141L6.48576 76.3426V69.7185L155.658 114.517V121.141ZM181.601 76.3426L113.501 96.7947L102.475 93.4826L181.601 69.7185V76.3426ZM29.1859 53.3312C36.6753 55.4575 44.4283 57.0659 52.3401 58.1345C56.4568 58.5547 60.6318 58.5877 64.7603 58.2326C68.4169 57.7945 72.1624 57.9422 75.7309 58.6651C79.1412 59.4555 82.2636 60.7845 84.8707 62.5552C87.4777 64.3259 89.5036 66.4937 90.8006 68.9004V75.95L29.1859 57.4473V53.3312ZM97.2864 68.9004C98.5832 66.4933 100.609 64.3252 103.216 62.554C105.823 60.7829 108.946 59.4535 112.356 58.6627C118.689 56.9681 126.236 59.3172 135.747 58.1368C143.659 57.0674 151.412 55.4583 158.901 53.3312V57.4473L97.2864 75.95V68.9004ZM112.356 11.9152C118.689 10.2206 126.236 12.5696 135.747 11.3893C143.658 10.3196 151.411 8.71127 158.901 6.58596V48.2988C151.082 50.6237 142.957 52.3754 134.651 53.5275C126.057 54.5957 118.281 52.083 110.096 54.2825C105.234 55.5414 100.848 57.6016 97.2864 60.2989V22.1529C98.5832 19.7458 100.609 17.5776 103.216 15.8065C105.823 14.0354 108.946 12.706 112.356 11.9152ZM29.1859 6.58596C36.6758 8.71127 44.4286 10.3196 52.3401 11.3893C56.4568 11.8089 60.6317 11.8419 64.7603 11.4874C68.4167 11.0492 72.1621 11.196 75.7309 11.9175C79.1405 12.7074 82.2626 14.0357 84.8696 15.8056C87.4766 17.5755 89.5028 19.7423 90.8006 22.1482V60.2989C87.2398 57.6012 82.8533 55.5409 77.9912 54.2825C69.8289 52.09 62.0038 54.591 53.4362 53.5252C45.1301 52.3746 37.0057 50.6245 29.1859 48.3011V6.58596ZM6.48576 22.9663L22.7002 27.821V59.004C22.7001 59.4653 22.8894 59.9163 23.2443 60.3002C23.5992 60.6841 24.1038 60.9838 24.6945 61.1614L92.795 81.6134C93.1905 81.7325 93.6149 81.7938 94.0435 81.7938C94.4721 81.7938 94.8965 81.7325 95.292 81.6134L163.392 61.1614C163.983 60.9839 164.487 60.6846 164.842 60.3012C165.197 59.9177 165.386 59.4672 165.387 59.0063V27.8374L181.601 22.9686V64.6534L181.423 64.7048L94.0435 90.9489L6.48576 64.6534V22.9663Z" fill="#2C8F6C"/>
</svg>
