<svg width="49" height="30" viewBox="0 0 49 30" fill="none" xmlns="http://www.w3.org/2000/svg">
<path d="M47.0812 7.59539H33.3761C32.4396 7.59539 31.663 6.88929 31.663 6.03782C31.663 5.18635 32.4396 4.48026 33.3761 4.48026H47.0812C48.0177 4.48026 48.7944 5.18635 48.7944 6.03782C48.7944 6.88929 48.0177 7.59539 47.0812 7.59539Z" fill="white" fill-opacity="0.44"/>
<path d="M40.2287 13.8256H33.3761C32.4396 13.8256 31.663 13.1195 31.663 12.2681C31.663 11.4166 32.4396 10.7105 33.3761 10.7105H40.2287C41.1652 10.7105 41.9418 11.4166 41.9418 12.2681C41.9418 13.1195 41.1652 13.8256 40.2287 13.8256Z" fill="white" fill-opacity="0.44"/>
<path d="M19 30C9.35366 30 0 22.2171 0 14.5C0 6.78293 9.35366 0.5 19 0.5C19.7 0.5 20.2805 0.96439 20.2805 1.52439C20.2805 2.08439 19.7 2.54878 19 2.54878C11.5 4 5.5 7.91658 5.5 14.5C5.5 21.0834 11 23.5488 19 25.5C27.2463 25.5 33.939 21.0834 33.939 14.5C33.939 13.94 34.5195 13.4756 35.2195 13.4756C35.9195 13.4756 36.5 13.94 36.5 14.5C36.5 22.2171 28.6463 30 19 30Z" fill="white" fill-opacity="0.44"/>
</svg>
