<svg width="293" height="515" viewBox="0 0 293 515" fill="none" xmlns="http://www.w3.org/2000/svg">
<path d="M0 41C0 24.4315 13.4315 11 30 11H263C279.569 11 293 24.4315 293 41V456.633C293 473.201 279.569 486.633 263 486.633H30C13.4315 486.633 0 473.201 0 456.633V41Z" fill="#D03838" fill-opacity="0.01"/>
<path d="M57.9411 477.89C57.6203 478.426 57.5214 479.006 57.6148 479.558C57.4879 480.263 57.6749 481.007 58.2081 481.634C59.2997 482.916 61.4285 483.216 62.9627 482.303L139.624 436.618L216.286 482.303C217.82 483.216 219.949 482.916 221.04 481.634C221.579 481.002 221.764 480.248 221.63 479.538C221.718 478.992 221.617 478.42 221.3 477.89L205.594 451.64L215.187 446.633L213.384 444.211L215.195 446.635C216.797 445.799 217.284 444.036 216.284 442.698C215.973 442.282 215.555 441.956 215.078 441.729L171.585 417.571L220.035 388.697C220.077 388.676 220.118 388.654 220.159 388.632C221.611 387.823 222.084 386.246 221.32 384.975L221.288 384.923L221.286 384.92C221.113 384.646 220.884 384.39 220.598 384.166L220.593 384.171L195.251 364.32C194.573 363.787 193.702 363.531 192.839 363.547C192.017 363.483 191.164 363.667 190.456 364.119L186.303 366.763L191.281 370.761L192.504 369.982L191.281 370.761L204.583 381.447C205.024 381.801 205.394 382.174 205.651 382.644C206.707 384.572 207.372 386.71 208.269 388.711C208.32 388.823 208.371 388.936 208.423 389.048L208.907 390.084L207.823 390.73L166.777 415.191H166.777L165.819 415.762L164.769 416.388L163.719 417.014L162.83 417.544L140.617 430.782L139.624 431.373L138.632 430.782L116.137 417.376L115.465 416.976L114.411 416.348L113.358 415.72L112.602 415.27L71.2361 390.618L70.1525 389.972L70.6359 388.936L70.7922 388.599L66.2504 385.892L70.7922 388.599C71.6878 386.655 72.5098 384.677 73.5268 382.776C73.7638 382.333 74.0615 381.932 74.4767 381.589L92.1359 366.996L87.6177 364.119C87.3996 363.98 87.1679 363.867 86.9275 363.778C85.6159 363.098 83.8713 363.232 82.7294 364.181L58.7754 384.066C58.3776 384.349 58.0524 384.711 57.8387 385.138C57.2241 386.344 57.6706 387.788 59.001 388.581L59.0096 388.576L107.66 417.568L64.1641 441.729C63.687 441.956 63.2688 442.282 62.9578 442.698C61.9575 444.036 62.4449 445.799 64.0464 446.635L65.8577 444.211L64.0546 446.633L73.6478 451.64L57.9413 477.89L57.9411 477.89Z" fill="url(#paint0_linear_8_51)"/>
<path fill-rule="evenodd" clip-rule="evenodd" d="M75.0873 383.359C73.9653 385.183 73.146 387.489 72.2286 389.455C94.6939 402.843 117.159 416.231 139.624 429.619C162.026 416.268 184.428 402.918 206.831 389.567C205.961 387.703 204.985 384.862 204.097 383.238C203.93 382.933 203.688 382.677 203.398 382.477L183.822 366.752L183.827 366.747C183.042 366.117 181.901 365.987 180.969 366.348C172.865 368.92 165.378 372.458 158.268 376.706C152.409 380.206 145.976 384.994 140.499 389.307L141.333 422.041C140.886 422.52 140.289 423.089 139.625 423.091C138.974 423.093 138.373 422.551 137.914 422.082L139.417 389.292C127.184 379.559 114.96 370.687 99.073 365.129L99.0748 365.126C98.07 364.774 96.9494 364.998 96.2367 365.616L75.6788 382.605L75.6786 382.605C75.4111 382.826 75.2138 383.084 75.0873 383.359Z" fill="#E264F6"/>
<path d="M63 83.8816C67.8936 83.671 72.0343 81.9162 75.4221 78.6171C78.81 75.318 80.5415 71.3871 80.5415 66.8245C80.5415 71.3871 82.1978 75.318 85.5857 78.6171C88.9735 81.9162 93.1142 83.671 98.0078 83.8816C93.1142 84.0922 88.9735 85.847 85.5857 89.1462C82.1978 92.4453 80.5415 96.3761 80.5415 100.939C80.5415 96.3761 78.8853 92.4453 75.4221 89.1462C72.0343 85.847 67.8936 84.0922 63 83.8816ZM80.5415 33.3421C90.0275 32.9209 98.0831 29.4814 104.708 23.0236C111.333 16.5657 114.646 8.91462 114.646 0C114.646 8.91462 117.958 16.5657 124.584 23.0236C131.209 29.4814 139.264 32.8507 148.826 33.3421C142.577 33.6228 136.855 35.2373 131.585 38.3258C126.39 41.3442 122.25 45.4154 119.163 50.4694C116.152 55.5233 114.646 60.9282 114.646 66.8245C114.646 57.9099 111.333 50.1886 104.708 43.7307C98.0831 37.2027 90.0275 33.7632 80.5415 33.3421ZM105.536 108.941C112.688 108.66 118.787 106.063 123.755 101.219C128.724 96.3761 131.209 90.6202 131.209 83.8816C131.209 90.6202 133.693 96.3761 138.662 101.219C143.631 106.063 149.654 108.66 156.806 108.941C149.654 109.222 143.631 111.819 138.662 116.662C133.693 121.506 131.209 127.261 131.209 134C131.209 127.261 128.724 121.506 123.755 116.662C118.711 111.819 112.688 109.292 105.536 108.941ZM156.806 75.6689C163.958 75.3882 169.981 72.791 174.95 67.9476C179.918 63.1042 182.328 57.3484 182.328 50.5396C182.328 57.2782 184.812 63.0341 189.781 67.8774C194.75 72.7208 200.848 75.318 208 75.5987C200.848 75.8795 194.75 78.4767 189.781 83.3201C184.812 88.1634 182.328 93.9193 182.328 100.658C182.328 93.9193 179.843 88.1634 174.95 83.3201C169.981 78.5469 163.958 75.9497 156.806 75.6689Z" fill="#FFE604"/>
<path d="M244.405 88C248.563 94.1571 251.032 101.597 251.032 109.55C251.162 130.971 233.36 148.288 211.401 148.288C203.994 148.288 196.977 146.236 191 142.773C197.757 155.985 211.66 164.964 227.773 164.964C250.512 164.964 268.964 147.006 268.964 124.814C268.964 108.395 258.828 94.2854 244.405 88Z" fill="#FFCE31"/>
<path d="M143.158 200.701C154.517 189.468 164.823 180.58 160.208 175.838C155.594 171.096 78.4114 194.966 82.5653 201.799C85.0408 205.871 152.315 252.553 158.971 256.337C166.791 260.784 179.639 256.121 178.715 248.197C177.79 240.273 170.178 175.473 170.178 175.473C170.178 175.473 175.247 181.967 176.756 186.406" stroke="#FFCE31" stroke-opacity="0.92" stroke-width="1.4807" stroke-linecap="round" stroke-linejoin="round"/>
<path d="M194.505 254.165C193.581 246.241 185.969 181.441 185.969 181.441C185.969 181.441 191.038 187.935 192.547 192.374" stroke="#FFCE31" stroke-opacity="0.92" stroke-width="1.4807" stroke-linecap="round" stroke-linejoin="round"/>
<path d="M164.033 283.051C164.651 258.035 156.75 202.311 156.75 202.311C156.75 202.311 161.82 208.805 163.329 213.244" stroke="#FFCE31" stroke-opacity="0.92" stroke-width="1.4807" stroke-linecap="round" stroke-linejoin="round"/>
<path d="M137.939 204.616C136.43 200.177 131.361 193.684 131.361 193.684C131.361 193.684 133.275 222.749 148.438 228.881C107.846 209.845 86.8563 268.332 69.5508 250.635C57.2031 238.007 80.3621 221.272 80.3621 221.272" stroke="#FFCE31" stroke-opacity="0.92" stroke-width="1.4807" stroke-linecap="round" stroke-linejoin="round"/>
<path d="M208.315 204.277C206.806 199.838 201.736 193.345 201.736 193.345C201.736 193.345 208.949 265.566 210.406 284.198C211.1 293.075 192.894 296.689 186.542 281.632C180.191 266.575 186.455 262.498 190.562 262.599C194.668 262.701 201.081 275.276 190.113 280.761C179.144 286.247 160.998 289.974 155.381 295.592C149.763 301.21 139.855 314.171 133.509 314.015C127.163 313.858 114.873 307.346 129.688 282.202" stroke="#FFCE31" stroke-opacity="0.92" stroke-width="1.4807" stroke-linecap="round" stroke-linejoin="round"/>
<path d="M222.291 273.542C221.497 260.316 215.229 206.659 215.229 206.659C215.229 206.659 220.298 213.152 221.807 217.591" stroke="#FFCE31" stroke-opacity="0.92" stroke-width="1.4807" stroke-linecap="round" stroke-linejoin="round"/>
<path d="M102.645 181.187C110.404 177.062 126.243 174.745 134.601 169.11" stroke="#FFCE31" stroke-opacity="0.92" stroke-width="1.4807" stroke-linecap="round" stroke-linejoin="round"/>
<path d="M78.5865 254.063C68.1312 263.975 70.4831 284.689 82.5127 281.6C87.0049 280.447 92.584 272.168 101.632 268.754C116.813 263.025 136.116 260.389 135.2 250.621C134.018 238.006 120.884 230.36 120.884 230.36" stroke="#FFCE31" stroke-opacity="0.92" stroke-width="1.4807" stroke-linecap="round" stroke-linejoin="round"/>
<path d="M153.129 263.254C146.815 260.545 144.804 257.544 144.804 257.544C149.71 268.136 153.534 274.608 153.534 279.631C153.535 284.654 124.58 299.995 112.323 299.692C98.0435 299.339 87.8284 289.78 92.2659 274.437" stroke="#FFCE31" stroke-opacity="0.92" stroke-width="1.4807" stroke-linecap="round" stroke-linejoin="round"/>
<path d="M84.9465 204.063C75.4661 207.775 69.1864 226.286 76.3887 224.581" stroke="#FFCE31" stroke-opacity="0.92" stroke-width="1.4807" stroke-linecap="round" stroke-linejoin="round"/>
<path d="M143.422 329.366C196.123 330.669 239.802 292.996 240.983 245.221C242.164 197.447 200.4 157.662 147.699 156.359C94.999 155.056 51.3195 192.729 50.1385 240.503C48.9574 288.278 90.722 328.063 143.422 329.366Z" stroke="#FFCE31" stroke-opacity="0.92" stroke-width="1.4807" stroke-linecap="round" stroke-linejoin="round"/>
<defs>
<linearGradient id="paint0_linear_8_51" x1="139.625" y1="363.352" x2="139.625" y2="482.831" gradientUnits="userSpaceOnUse">
<stop stop-color="#E3E80D"/>
<stop offset="1" stop-color="#DDE04F" stop-opacity="0"/>
</linearGradient>
</defs>
</svg>
